<svg width="105" height="37" viewBox="0 0 105 37" fill="none" xmlns="http://www.w3.org/2000/svg">
<path d="M96.2588 10.665V34.7031H103.212V10.665H96.2588ZM103.59 4.44434C103.59 3.43717 103.227 2.61442 102.501 1.97754C101.834 1.36677 100.973 1.04207 99.916 1.00391L99.7021 1C98.5469 1 97.6133 1.32585 96.9023 1.97754C96.1915 2.6144 95.8359 3.43724 95.8359 4.44434L95.8408 4.62793C95.8825 5.53823 96.2359 6.29922 96.9023 6.91016C97.5689 7.50727 98.4312 7.82404 99.4883 7.86133L99.7021 7.86523C100.785 7.86523 101.673 7.5851 102.365 7.02539L102.501 6.91016C103.181 6.2992 103.543 5.5383 103.586 4.62793L103.59 4.44434ZM104.212 35.7031H95.2588V9.66504H104.212V35.7031ZM104.584 4.67969C104.528 5.85007 104.052 6.86196 103.17 7.6543H103.169C102.238 8.48847 101.049 8.86523 99.7021 8.86523C98.355 8.86523 97.1665 8.48848 96.2354 7.6543L96.2266 7.64746V7.64648C95.3028 6.79943 94.8361 5.70732 94.8359 4.44434C94.8359 3.1743 95.2974 2.07743 96.2275 1.24023L96.4043 1.08594C97.3069 0.340432 98.4335 0 99.7021 0C101.055 7.27808e-06 102.246 0.38744 103.177 1.24023H103.176C104.118 2.07445 104.59 3.17031 104.59 4.44434L104.584 4.67969Z" fill="white"/>
<path d="M77.8389 27.5273C77.8389 27.009 77.9134 26.535 78.0615 26.1055C78.2041 25.7167 78.4147 25.3733 78.6934 25.0752L78.8164 24.9502C79.157 24.6096 79.6016 24.3429 80.1494 24.1504C80.6419 23.9819 81.214 23.8873 81.8652 23.8662L82.1494 23.8613H84.6816V27.8779C84.6125 28.01 84.5316 28.145 84.4375 28.2822C84.082 28.7858 83.5785 29.2158 82.9268 29.5713C82.2899 29.9267 81.5196 30.1045 80.6162 30.1045V29.1045C81.3892 29.1045 81.9832 28.9529 82.4395 28.6982L82.4482 28.6934C82.9925 28.3965 83.3691 28.0616 83.6201 27.7061C83.6421 27.6738 83.6622 27.642 83.6816 27.6113V24.8613H82.1494C81.4587 24.8613 80.9067 24.9485 80.4736 25.0967C80.0424 25.2492 79.7373 25.4433 79.5234 25.6572L79.5078 25.6729C79.2817 25.8892 79.1164 26.1402 79.0059 26.4355C78.8995 26.7456 78.8389 27.1064 78.8389 27.5273L78.8535 27.7568C78.8808 27.974 78.9471 28.166 79.0498 28.3418C79.1547 28.5106 79.2882 28.6545 79.459 28.7754L79.6445 28.8896C79.8917 29.022 80.2058 29.1045 80.6162 29.1045V30.1045L80.4141 30.0986C80.0155 30.0778 79.6546 29.9944 79.3311 29.8486L79.1719 29.7715C78.8092 29.5772 78.5148 29.3199 78.2881 29.001L78.1943 28.8604C77.9869 28.5104 77.8706 28.1261 77.8447 27.708L77.8389 27.5273ZM83.6816 18.6631C83.6816 18.1139 83.6083 17.6764 83.4854 17.332L83.4297 17.1904C83.3049 16.8993 83.1261 16.6725 82.8828 16.4951L82.7744 16.4229C82.5061 16.2551 82.0925 16.1299 81.4609 16.1299C80.9396 16.1299 80.5343 16.2212 80.2188 16.3691C79.9329 16.5097 79.7312 16.6952 79.5869 16.9297C79.4612 17.157 79.3721 17.4831 79.3721 17.9521V18.9521H70.4404V17.9521L70.4541 17.4902C70.5158 16.4226 70.7931 15.4108 71.2881 14.4658C71.848 13.397 72.6398 12.4687 73.6436 11.6787L73.6504 11.6738C74.6757 10.88 75.8814 10.2814 77.251 9.86621L77.7773 9.71289C79.0226 9.38092 80.3784 9.22073 81.8379 9.2207C83.8321 9.2207 85.6456 9.55853 87.2578 10.2588H87.2568C88.8987 10.9505 90.2201 12.0074 91.1914 13.4287C92.1921 14.8779 92.6582 16.66 92.6582 18.707V28.7715L92.6621 29.2891C92.6794 30.4461 92.7556 31.3364 92.8799 31.9795C93.0216 32.629 93.2099 33.1853 93.4385 33.6562L93.5391 33.8525L93.6582 34.0742V35.7031H85.0234L84.7539 35.127C84.6465 34.8976 84.5487 34.6558 84.459 34.4023C83.8595 34.8683 83.1768 35.2535 82.417 35.5605L82.418 35.5615C81.4374 35.9642 80.3015 36.1474 79.0391 36.1475C77.4935 36.1475 76.0572 35.8554 74.7461 35.2568L74.4863 35.1328L74.4775 35.1289C73.1918 34.4783 72.1298 33.5929 71.3096 32.4736L71.1484 32.2471L71.1436 32.2393C70.2982 30.9799 69.8857 29.538 69.8857 27.9492C69.8857 26.5675 70.1378 25.2998 70.6689 24.1689C71.2025 23.0332 72.0011 22.0765 73.0439 21.3027L73.0508 21.2988C74.1109 20.5248 75.4058 19.9676 76.9053 19.6035C78.412 19.2229 80.1423 19.04 82.083 19.04V20.04L81.3887 20.0488C79.7945 20.0877 78.3817 20.2622 77.1504 20.5732C75.7434 20.9139 74.5737 21.4252 73.6406 22.1064C72.7223 22.7878 72.0334 23.6172 71.5742 24.5947L71.4131 24.9678C71.0615 25.8539 70.8857 26.8476 70.8857 27.9492L70.8896 28.2109C70.9321 29.511 71.2933 30.668 71.9736 31.6816C72.7142 32.7628 73.6995 33.6143 74.9287 34.2363C76.0042 34.7676 77.1876 35.0663 78.4785 35.1328L79.0391 35.1475C80.209 35.1474 81.2087 34.9773 82.0381 34.6367C82.8823 34.2961 83.6009 33.8593 84.1934 33.3262C84.4839 33.0574 84.7486 32.7787 84.9893 32.4922C85.1498 33.3548 85.373 34.0918 85.6592 34.7031H92.6582V34.3252C92.3324 33.7179 92.0801 33.007 91.9023 32.1924C91.7598 31.4666 91.6799 30.5028 91.6621 29.3008L91.6582 28.7715V18.707C91.6582 16.8112 91.2282 15.2412 90.3691 13.9971C89.5637 12.8168 88.485 11.9164 87.1328 11.2959L86.8594 11.1758C85.4847 10.5787 83.9276 10.261 82.1885 10.2236L81.8379 10.2207C80.2533 10.2207 78.8244 10.4205 77.5508 10.8203C76.2772 11.2054 75.1809 11.7531 74.2627 12.4639C73.3592 13.1748 72.6626 13.9976 72.1738 14.9307L72.002 15.2832C71.6277 16.1159 71.4404 17.006 71.4404 17.9521H78.3721C78.3721 17.4209 78.4632 16.963 78.6445 16.5791L78.7275 16.4189C78.9792 16.0044 79.335 15.686 79.7939 15.4639C80.2679 15.2417 80.8241 15.1299 81.4609 15.1299L81.7373 15.1367C82.3674 15.1691 82.89 15.315 83.3047 15.5742C83.7786 15.8704 84.1265 16.2785 84.3486 16.7969C84.5707 17.3152 84.6816 17.9375 84.6816 18.6631V20.04H82.083V19.04H83.6816V18.6631Z" fill="white"/>
<path d="M68.6504 22.8613L68.5938 23.915C68.4669 26.2916 67.8134 28.4242 66.6152 30.2871C65.4296 32.1386 63.7853 33.5829 61.7109 34.6201L61.7051 34.623C59.6138 35.6526 57.1674 36.1475 54.3984 36.1475C52.3049 36.1474 50.3858 35.8108 48.6562 35.1191L48.3135 34.9766C46.6186 34.2416 45.1547 33.2063 43.9316 31.874L43.6904 31.6045L43.6826 31.5957L44.4453 30.9482C45.6153 32.296 47.0374 33.3329 48.7109 34.0586C50.3846 34.7843 52.2805 35.1474 54.3984 35.1475C56.884 35.1475 59.0508 34.7307 60.8984 33.8975L61.2637 33.7256C63.189 32.7629 64.6922 31.4374 65.7734 29.749C66.8695 28.0457 67.4772 26.083 67.5957 23.8613H60.3975C60.3234 25.1203 60.0568 26.1647 59.5977 26.9941L59.416 27.2949C58.9705 27.9755 58.3719 28.4974 57.6201 28.8604C56.7611 29.2602 55.687 29.46 54.3984 29.46V28.46C55.5908 28.46 56.51 28.2735 57.1982 27.9531C57.8658 27.6279 58.3666 27.1529 58.7227 26.5098C59.0895 25.847 59.3304 24.9593 59.3984 23.8027L59.4541 22.8613H68.6504ZM41.8994 26.3936C42.5138 28.1526 43.3623 29.6708 44.4453 30.9482L43.6826 31.5947C42.5117 30.2135 41.6053 28.5851 40.9551 26.7236L40.8281 26.3486L40.8262 26.3398L41.7793 26.0391L41.8994 26.3936ZM48.2002 19.5293V17.5078C48.2002 15.7899 48.3264 14.3085 48.5781 13.0645C48.8299 11.8057 49.2075 10.7687 49.7109 9.9541C50.2293 9.13957 50.8735 8.53939 51.6436 8.1543C52.4284 7.76926 53.3394 7.57622 54.376 7.57617C55.7979 7.57617 56.9388 7.79883 57.7979 8.24316C58.6568 8.6875 59.2933 9.34689 59.708 10.2207C60.0708 10.9723 60.298 11.8768 60.3887 12.9346L60.4189 13.3975H67.6396C67.4452 11.3145 66.8798 9.44627 65.9434 7.79297L65.751 7.46582C64.779 5.84121 63.4301 4.54111 61.7031 3.56738L61.3525 3.37793C59.4567 2.38558 57.1309 1.88867 54.376 1.88867C52.3322 1.88872 50.481 2.25186 48.8223 2.97754L48.5137 3.11719C46.9863 3.83489 45.6674 4.83293 44.5566 6.11035L44.3379 6.36914C43.2592 7.67951 42.4213 9.23701 41.8242 11.042L41.708 11.4062C41.1483 13.24 40.8682 15.2885 40.8682 17.5518V19.5293L40.8828 20.4229C40.9492 22.4819 41.2479 24.3543 41.7793 26.0391L40.8262 26.3389C40.183 24.2994 39.8682 22.026 39.8682 19.5293V17.5518C39.8682 15.0507 40.198 12.7723 40.874 10.7285C41.5474 8.69279 42.5199 6.9283 43.8018 5.4541C45.084 3.97948 46.6269 2.84648 48.4209 2.06152C50.2213 1.27383 52.212 0.888722 54.376 0.888672C57.0681 0.888672 59.4291 1.34339 61.4229 2.29492L61.8164 2.49121C63.8632 3.56259 65.4686 5.04851 66.6055 6.94629C67.6722 8.70412 68.3297 10.6826 68.5889 12.8652L68.6357 13.3047L68.7373 14.3975H59.4648L59.4209 13.4443C59.3729 12.4246 59.2002 11.594 58.9297 10.9297L58.8076 10.6553L58.8047 10.6494C58.4837 9.97312 58.0027 9.4747 57.3379 9.13086C56.6719 8.78651 55.7072 8.57617 54.376 8.57617C53.4669 8.57622 52.7133 8.74334 52.0898 9.04785L52.0908 9.04883C51.5051 9.34176 50.9932 9.80482 50.5615 10.4795L50.4062 10.7471C50.0535 11.3976 49.765 12.2278 49.5586 13.2598L49.5576 13.2627C49.3228 14.4232 49.2002 15.8349 49.2002 17.5078V19.5293L49.2051 20.1406C49.2254 21.3412 49.3065 22.4011 49.4443 23.3242L49.5176 23.7744C49.7247 24.9342 50.0467 25.8387 50.4551 26.5205C50.8701 27.1891 51.3811 27.6604 51.9863 27.9688C52.5971 28.2799 53.3881 28.4599 54.3984 28.46V29.46C53.4136 29.4599 52.559 29.3071 51.835 29.001L51.5322 28.8604C50.7473 28.4604 50.1031 27.8526 49.5996 27.0381C49.1109 26.2235 48.7553 25.1942 48.5332 23.9502C48.3388 22.8616 48.2294 21.5973 48.2051 20.1572L48.2002 19.5293Z" fill="white"/>
<path d="M0 9.70312H12.4131L26.6346 29.0902H37V35.7031H24.5869L10.3664 16.3161H0V9.70312ZM25.0089 10.9674V15.0518H36.0202V10.9674H25.0089ZM0.979803 15.0518H10.7874L25.0089 34.4388H36.0202V30.3545H26.2126L11.9911 10.9674H0.979803V15.0518ZM37 16.3161H24.0291V9.70312H37V16.3161Z" fill="white"/>
</svg>
