<svg width="99" height="35" viewBox="0 0 99 35" fill="none" xmlns="http://www.w3.org/2000/svg">
<path d="M98.3052 9.66431V33.7029H91.3513V9.66431H98.3052ZM90.9292 3.4436C90.9292 2.43644 91.2847 1.61442 91.9956 0.977539C92.7065 0.325846 93.6396 0 94.7949 0C95.9502 0 96.8833 0.325846 97.5942 0.977539C98.32 1.61442 98.6829 2.43644 98.6829 3.4436C98.6829 4.43595 98.32 5.25798 97.5942 5.90967C96.8833 6.54655 95.9502 6.86499 94.7949 6.86499C93.6396 6.86499 92.7065 6.54655 91.9956 5.90967C91.2847 5.25798 90.9292 4.43595 90.9292 3.4436Z" fill="white"/>
<path d="M81.2854 27.9712V17.6626C81.2854 16.9368 81.1743 16.3148 80.9521 15.7964C80.73 15.278 80.3819 14.8707 79.908 14.5745C79.434 14.2782 78.8193 14.1301 78.064 14.1301C77.4271 14.1301 76.8717 14.2412 76.3977 14.4634C75.9386 14.6855 75.5831 15.004 75.3313 15.4187C75.0943 15.8334 74.9758 16.3444 74.9758 16.9517H68.0442C68.0442 15.8704 68.2886 14.8633 68.7773 13.9302C69.2661 12.9971 69.9622 12.175 70.8657 11.4641C71.784 10.7532 72.88 10.2052 74.1538 9.82007C75.4276 9.42017 76.8569 9.22021 78.4417 9.22021C80.3227 9.22021 81.9963 9.53866 83.4626 10.1755C84.9438 10.7976 86.1139 11.7381 86.9729 12.9971C87.8319 14.2412 88.2615 15.8112 88.2615 17.707V27.7712C88.2615 29.2227 88.3429 30.3632 88.5059 31.1926C88.6836 32.0072 88.9354 32.7182 89.2612 33.3254V33.7031H82.2629C81.9371 33.007 81.6927 32.1479 81.5298 31.126C81.3669 30.0892 81.2854 29.0376 81.2854 27.9712ZM82.1519 19.04L82.1963 22.8613H78.7527C77.9825 22.8613 77.316 22.9576 76.7532 23.1501C76.2052 23.3427 75.7608 23.6093 75.4202 23.95C75.0795 24.2758 74.8277 24.6609 74.6648 25.1052C74.5167 25.5347 74.4426 26.0087 74.4426 26.5271C74.4426 27.0159 74.5611 27.4602 74.7981 27.8601C75.0351 28.2452 75.3609 28.5488 75.7756 28.771C76.1903 28.9932 76.6717 29.1042 77.2197 29.1042C78.1232 29.1042 78.8934 28.9265 79.5303 28.571C80.182 28.2156 80.6855 27.7861 81.041 27.2825C81.3965 26.7641 81.5742 26.2827 81.5742 25.8384L83.2405 28.7266C82.9739 29.319 82.648 29.9337 82.2629 30.5706C81.8778 31.1926 81.3891 31.7777 80.7966 32.3257C80.2042 32.8589 79.4858 33.2958 78.6416 33.6365C77.8122 33.9771 76.8124 34.1475 75.6423 34.1475C74.1316 34.1475 72.7616 33.8438 71.5322 33.2366C70.3029 32.6145 69.318 31.7629 68.5774 30.6816C67.8516 29.6004 67.4888 28.3563 67.4888 26.9492C67.4888 25.6903 67.7183 24.572 68.1775 23.5945C68.6366 22.6169 69.3254 21.7875 70.2437 21.1062C71.1768 20.4249 72.3468 19.9139 73.7539 19.5732C75.161 19.2178 76.805 19.04 78.686 19.04H82.1519Z" fill="white"/>
<path d="M58.511 22.8611H65.7092C65.5907 25.0828 64.9835 27.0452 63.8875 28.7485C62.8062 30.437 61.3029 31.7626 59.3774 32.7253C57.452 33.6733 55.1637 34.1472 52.5125 34.1472C50.3944 34.1472 48.4986 33.7843 46.825 33.0586C45.1513 32.3328 43.7294 31.2961 42.5593 29.9482C41.4041 28.5856 40.5154 26.949 39.8933 25.0383C39.2861 23.1129 38.9824 20.943 38.9824 18.5288V16.5515C38.9824 14.1373 39.3009 11.9674 39.9377 10.042C40.5746 8.11654 41.4855 6.47249 42.6704 5.10986C43.8553 3.74723 45.2772 2.70304 46.936 1.97729C48.5949 1.25155 50.4463 0.888672 52.4902 0.888672C55.2451 0.888672 57.5705 1.38485 59.4663 2.3772C61.3621 3.36955 62.8285 4.73218 63.8652 6.46509C64.9168 8.198 65.5463 10.1753 65.7537 12.397H58.5332C58.474 11.138 58.237 10.079 57.8223 9.21997C57.4076 8.34611 56.7707 7.68701 55.9116 7.24268C55.0526 6.79834 53.9121 6.57617 52.4902 6.57617C51.4535 6.57617 50.5426 6.76872 49.7576 7.15381C48.9874 7.5389 48.3431 8.13875 47.8247 8.95337C47.3211 9.76799 46.9434 10.8048 46.6917 12.0637C46.4399 13.3079 46.314 14.789 46.314 16.5071V18.5288C46.314 20.2321 46.425 21.7058 46.6472 22.95C46.8694 24.1941 47.2249 25.2235 47.7136 26.0381C48.2172 26.8527 48.8615 27.46 49.6465 27.8599C50.4315 28.2598 51.3868 28.4597 52.5125 28.4597C53.801 28.4597 54.8748 28.2598 55.7339 27.8599C56.5929 27.4451 57.252 26.8231 57.7112 25.9937C58.1703 25.1642 58.4369 24.12 58.511 22.8611Z" fill="white"/>
<path d="M24.5245 27.8335L10.01 12.5H0V9.26953H11.2385L25.753 24.603H35.763V27.8335H24.5245ZM24.5245 12.5V9.26953H35.763V12.5H24.5245Z" fill="white"/>
</svg>
