<svg width="99" height="35" viewBox="0 0 99 35" fill="none" xmlns="http://www.w3.org/2000/svg">
<path d="M98.4688 9.66431V33.7029H91.5149V9.66431H98.4688ZM91.0928 3.4436C91.0928 2.43644 91.4482 1.61442 92.1592 0.977539C92.8701 0.325846 93.8032 0 94.9585 0C96.1138 0 97.0469 0.325846 97.7578 0.977539C98.4836 1.61442 98.8464 2.43644 98.8464 3.4436C98.8464 4.43595 98.4836 5.25798 97.7578 5.90967C97.0469 6.54655 96.1138 6.86499 94.9585 6.86499C93.8032 6.86499 92.8701 6.54655 92.1592 5.90967C91.4482 5.25798 91.0928 4.43595 91.0928 3.4436Z" fill="white"/>
<path d="M81.449 27.9712V17.6626C81.449 16.9368 81.3379 16.3148 81.1157 15.7964C80.8936 15.278 80.5455 14.8707 80.0715 14.5745C79.5976 14.2782 78.9829 14.1301 78.2275 14.1301C77.5907 14.1301 77.0352 14.2412 76.5613 14.4634C76.1021 14.6855 75.7467 15.004 75.4949 15.4187C75.2579 15.8334 75.1394 16.3444 75.1394 16.9517H68.2078C68.2078 15.8704 68.4521 14.8633 68.9409 13.9302C69.4297 12.9971 70.1258 12.175 71.0293 11.4641C71.9476 10.7532 73.0436 10.2052 74.3174 9.82007C75.5911 9.42017 77.0204 9.22021 78.6052 9.22021C80.4862 9.22021 82.1599 9.53866 83.6262 10.1755C85.1073 10.7976 86.2774 11.7381 87.1365 12.9971C87.9955 14.2412 88.425 15.8112 88.425 17.707V27.7712C88.425 29.2227 88.5065 30.3632 88.6694 31.1926C88.8472 32.0072 89.099 32.7182 89.4248 33.3254V33.7031H82.4265C82.1007 33.007 81.8563 32.1479 81.6934 31.126C81.5304 30.0892 81.449 29.0376 81.449 27.9712ZM82.3154 19.04L82.3599 22.8613H78.9163C78.1461 22.8613 77.4796 22.9576 76.9167 23.1501C76.3687 23.3427 75.9244 23.6093 75.5837 23.95C75.2431 24.2758 74.9913 24.6609 74.8284 25.1052C74.6803 25.5347 74.6062 26.0087 74.6062 26.5271C74.6062 27.0159 74.7247 27.4602 74.9617 27.8601C75.1986 28.2452 75.5245 28.5488 75.9392 28.771C76.3539 28.9932 76.8353 29.1042 77.3833 29.1042C78.2868 29.1042 79.057 28.9265 79.6938 28.571C80.3455 28.2156 80.8491 27.7861 81.2046 27.2825C81.5601 26.7641 81.7378 26.2827 81.7378 25.8384L83.4041 28.7266C83.1375 29.319 82.8116 29.9337 82.4265 30.5706C82.0414 31.1926 81.5527 31.7777 80.9602 32.3257C80.3678 32.8589 79.6494 33.2958 78.8052 33.6365C77.9757 33.9771 76.976 34.1475 75.8059 34.1475C74.2952 34.1475 72.9251 33.8438 71.6958 33.2366C70.4665 32.6145 69.4815 31.7629 68.741 30.6816C68.0152 29.6004 67.6523 28.3563 67.6523 26.9492C67.6523 25.6903 67.8819 24.572 68.3411 23.5945C68.8002 22.6169 69.4889 21.7875 70.4072 21.1062C71.3403 20.4249 72.5104 19.9139 73.9175 19.5732C75.3245 19.2178 76.9686 19.04 78.8496 19.04H82.3154Z" fill="white"/>
<path d="M58.6746 22.8611H65.8728C65.7543 25.0828 65.1471 27.0452 64.051 28.7485C62.9698 30.437 61.4665 31.7626 59.541 32.7253C57.6156 33.6733 55.3272 34.1472 52.676 34.1472C50.558 34.1472 48.6622 33.7843 46.9885 33.0586C45.3149 32.3328 43.893 31.2961 42.7229 29.9482C41.5676 28.5856 40.679 26.949 40.0569 25.0383C39.4496 23.1129 39.146 20.943 39.146 18.5288V16.5515C39.146 14.1373 39.4644 11.9674 40.1013 10.042C40.7382 8.11654 41.6491 6.47249 42.834 5.10986C44.0189 3.74723 45.4408 2.70304 47.0996 1.97729C48.7585 1.25155 50.6099 0.888672 52.6538 0.888672C55.4087 0.888672 57.7341 1.38485 59.6299 2.3772C61.5257 3.36955 62.992 4.73218 64.0288 6.46509C65.0804 8.198 65.7099 10.1753 65.9172 12.397H58.6968C58.6375 11.138 58.4006 10.079 57.9858 9.21997C57.5711 8.34611 56.9342 7.68701 56.0752 7.24268C55.2161 6.79834 54.0757 6.57617 52.6538 6.57617C51.617 6.57617 50.7061 6.76872 49.9211 7.15381C49.151 7.5389 48.5067 8.13875 47.9883 8.95337C47.4847 9.76799 47.107 10.8048 46.8552 12.0637C46.6034 13.3079 46.4775 14.789 46.4775 16.5071V18.5288C46.4775 20.2321 46.5886 21.7058 46.8108 22.95C47.033 24.1941 47.3884 25.2235 47.8772 26.0381C48.3808 26.8527 49.0251 27.46 49.8101 27.8599C50.5951 28.2598 51.5504 28.4597 52.676 28.4597C53.9646 28.4597 55.0384 28.2598 55.8975 27.8599C56.7565 27.4452 57.4156 26.8231 57.8748 25.9937C58.3339 25.1642 58.6005 24.12 58.6746 22.8611Z" fill="white"/>
<path d="M24.687 33.7031L10.0763 13.8796H0V9.70312H11.313L25.9237 29.5267H36V33.7031H24.687ZM24.687 13.8796V9.70312H36V13.8796H24.687Z" fill="white"/>
</svg>
