<svg width="109" height="38" viewBox="0 0 109 38" fill="none" xmlns="http://www.w3.org/2000/svg">
<path d="M99.6992 11.165V35.2031H106.653V11.165H99.6992ZM107.031 4.94434C107.031 3.93717 106.668 3.11442 105.942 2.47754C105.231 1.82592 104.298 1.5 103.143 1.5C101.988 1.50009 101.055 1.82601 100.344 2.47754L100.215 2.59961C99.59 3.21838 99.2773 4.00012 99.2773 4.94434L99.2812 5.12793C99.3229 6.0383 99.6772 6.79919 100.344 7.41016C101.055 8.04687 101.988 8.36515 103.143 8.36523C104.226 8.36523 105.114 8.08526 105.807 7.52539L105.942 7.41016C106.623 6.7992 106.984 6.03828 107.026 5.12793L107.031 4.94434ZM108.524 5.20605C108.462 6.50627 107.928 7.64344 106.944 8.52637L106.943 8.52734C106.315 9.09029 105.586 9.45949 104.79 9.66504H108.153V36.7031H98.1992V9.66504H101.496C100.783 9.48078 100.123 9.16553 99.541 8.69629L99.3428 8.52734L99.3369 8.52148L99.3301 8.51562C98.2993 7.57073 97.7775 6.34311 97.7773 4.94434C97.7773 3.53737 98.2949 2.29907 99.3428 1.36035C100.381 0.41492 101.697 9.041e-05 103.143 0C104.595 0 105.916 0.418319 106.956 1.37207C108.006 2.30496 108.531 3.5372 108.531 4.94434L108.524 5.20605Z" fill="white"/>
<path d="M80.791 28.0273C80.791 27.5091 80.8646 27.0349 81.0127 26.6055C81.1552 26.2168 81.366 25.8732 81.6445 25.5752L81.7686 25.4502C82.1092 25.1096 82.5536 24.8429 83.1016 24.6504C83.6643 24.4579 84.3306 24.3613 85.1006 24.3613H87.6338V28.376C87.5644 28.5086 87.4832 28.6443 87.3887 28.7822C87.0332 29.2858 86.5296 29.7158 85.8779 30.0713C85.2411 30.4266 84.4707 30.6045 83.5674 30.6045V29.1045C84.2753 29.1045 84.7814 28.966 85.1475 28.7617L85.1533 28.7578L85.1602 28.7539C85.6277 28.4989 85.9339 28.2258 86.1338 27.957V25.8613H85.1006C84.4548 25.8613 83.9629 25.9422 83.5957 26.0664C83.2184 26.1994 82.9812 26.3587 82.8291 26.5107L82.8174 26.5225L82.8047 26.5342C82.634 26.6975 82.511 26.8838 82.4268 27.1074C82.3426 27.3567 82.291 27.6587 82.291 28.0273L82.3008 28.1924C82.3194 28.3432 82.3641 28.469 82.4297 28.583C82.4979 28.6914 82.5836 28.7859 82.7002 28.8682L82.832 28.9492C82.9954 29.0367 83.226 29.1044 83.5674 29.1045V30.6045L83.3652 30.5986C82.9667 30.5778 82.6058 30.4945 82.2822 30.3486L82.124 30.2715C81.7094 30.0494 81.3834 29.7453 81.1465 29.3604C80.9391 29.0103 80.8218 28.6261 80.7959 28.208L80.791 28.0273ZM94.6094 19.207C94.6094 17.4297 94.2316 15.9389 93.4766 14.7344L93.3213 14.4971C92.516 13.3168 91.437 12.4164 90.085 11.7959L89.8105 11.6758C88.4358 11.0787 86.8789 10.7609 85.1396 10.7236L84.79 10.7207C83.2052 10.7207 81.7757 10.9204 80.502 11.3203L80.0322 11.4717C78.9567 11.8442 78.0173 12.3419 77.2139 12.9639C76.3104 13.6748 75.6138 14.4976 75.125 15.4307L74.9531 15.7832C74.5789 16.6159 74.3926 17.506 74.3926 18.4521H81.3242C81.3242 17.921 81.4144 17.4629 81.5957 17.0791L81.6797 16.9189C81.9 16.5561 82.1991 16.2662 82.5781 16.0508L82.7461 15.9639C83.22 15.7417 83.7753 15.6299 84.4121 15.6299L84.6885 15.6367C85.3186 15.6691 85.8411 15.8151 86.2559 16.0742C86.7298 16.3704 87.0776 16.7785 87.2998 17.2969C87.5219 17.8152 87.6338 18.4375 87.6338 19.1631V20.54H85.0342V19.04H86.1309C86.1208 18.5951 86.0569 18.2563 85.9658 18.001L85.9219 17.8877C85.8448 17.7079 85.7435 17.5676 85.6084 17.4531L85.4609 17.3467C85.2953 17.2432 84.9821 17.1299 84.4121 17.1299C83.9544 17.1299 83.6272 17.2088 83.3916 17.3174C83.1904 17.4161 83.0636 17.5361 82.9717 17.6816C82.8981 17.8191 82.8242 18.0549 82.8242 18.4521V19.126C83.5301 19.0684 84.2672 19.04 85.0342 19.04V20.54L84.3398 20.5488C82.7458 20.5877 81.3327 20.7622 80.1016 21.0732C78.6947 21.4139 77.5248 21.9252 76.5918 22.6064C75.6735 23.2878 74.9845 24.1172 74.5254 25.0947L74.3643 25.4678C74.0127 26.3539 73.8369 27.3477 73.8369 28.4492L73.8408 28.7109C73.8833 30.0111 74.2454 31.1679 74.9258 32.1816C75.6662 33.2627 76.6508 34.1143 77.8799 34.7363C79.1092 35.3436 80.4796 35.6474 81.9902 35.6475C83.1601 35.6475 84.1599 35.4773 84.9893 35.1367C85.8333 34.7961 86.5521 34.3592 87.1445 33.8262C87.435 33.5575 87.6998 33.2787 87.9404 32.9922C88.0781 33.7321 88.2621 34.3796 88.4922 34.9346L88.6113 35.2031H95.6094V34.8252C95.2836 34.218 95.0312 33.5069 94.8535 32.6924C94.711 31.9666 94.6311 31.0027 94.6133 29.8008L94.6094 29.2715V19.207ZM96.1094 29.2715L96.1133 29.7832C96.1305 30.9298 96.2067 31.7901 96.3242 32.3936C96.4778 33.0902 96.6851 33.6585 96.9307 34.1162L97.1094 34.4482V36.7031H87.6572L87.2529 35.8389C87.2286 35.7869 87.206 35.7337 87.1826 35.6807C86.683 36.008 86.1403 36.2882 85.5586 36.5234C84.5025 36.9571 83.2988 37.1475 81.9902 37.1475C80.2729 37.1474 78.672 36.8004 77.2158 36.0811L77.209 36.0781L77.2031 36.0752C75.8508 35.3909 74.7273 34.4551 73.8584 33.2695L73.6875 33.0293L73.6797 33.0176C72.7746 31.6691 72.3369 30.1288 72.3369 28.4492C72.3369 28.2947 72.3416 28.1414 72.3477 27.9893C72.3687 26.9585 72.6046 25.8814 73.0293 24.7705C73.0735 24.6651 73.1194 24.5605 73.168 24.457C73.7387 23.2419 74.5929 22.2215 75.6982 21.4014L75.707 21.3945C76.5409 20.7857 77.5042 20.3109 78.5771 19.9521H72.8926V18.4521L72.9062 17.9609C72.972 16.8243 73.2682 15.7438 73.7969 14.7344C74.3925 13.5973 75.2317 12.6148 76.2861 11.7852L76.2959 11.7783C77.3784 10.9403 78.6437 10.3142 80.0674 9.88379C81.5068 9.43384 83.0864 9.2207 84.79 9.2207C86.8407 9.22074 88.7231 9.5679 90.4082 10.2998C92.1307 11.0265 93.5273 12.1418 94.5547 13.6445C95.6262 15.1963 96.1094 17.0844 96.1094 19.207V29.2715Z" fill="white"/>
<path d="M70.792 22.6582L70.708 24.2383C70.6952 24.4783 70.6746 24.7157 70.6514 24.9512C70.5508 26.1031 70.312 27.1231 69.9932 28.0605C69.6604 29.0453 69.2138 29.9773 68.6504 30.8535L68.6514 30.8545C67.4136 32.7875 65.6977 34.2898 63.5488 35.3643L63.541 35.3682C61.3667 36.4386 58.8407 36.9443 56.0127 36.9443C53.7223 36.9443 51.6183 36.5509 49.7285 35.7314C47.8539 34.9185 46.2471 33.7494 44.9268 32.2285L44.9219 32.2217L44.916 32.2158C43.701 30.7827 42.7659 29.0984 42.0977 27.1855L41.9678 26.7998L41.9629 26.7871L43.3936 26.3359C44.0156 28.2463 44.9045 29.8826 46.0596 31.2451C47.2296 32.5928 48.6517 33.6297 50.3252 34.3555C51.9988 35.0812 53.8948 35.4443 56.0127 35.4443C58.6639 35.4443 60.9525 34.9704 62.8779 34.0225C64.8033 33.0598 66.3065 31.7342 67.3877 30.0459C68.4837 28.3426 69.0915 26.3799 69.21 24.1582H62.0117C61.9377 25.4172 61.6711 26.4616 61.2119 27.291L61.0303 27.5918C60.5848 28.2723 59.9861 28.7943 59.2344 29.1572L58.9023 29.2979C58.1037 29.604 57.1402 29.7568 56.0127 29.7568V28.2568C57.1536 28.2568 57.9932 28.0781 58.5957 27.7988C59.1703 27.5184 59.5939 27.1163 59.8994 26.5645C60.2202 25.985 60.4486 25.1758 60.5137 24.0703L60.5977 22.6582H70.792ZM49.8145 19.8262V17.8047C49.8145 16.3015 49.9108 14.9792 50.1035 13.8389L50.1924 13.3613C50.4441 12.1026 50.8217 11.0655 51.3252 10.251C51.8435 9.43649 52.4878 8.83627 53.2578 8.45117C54.0428 8.06608 54.9544 7.87305 55.9912 7.87305L56.5107 7.88379C57.6934 7.93238 58.6604 8.15124 59.4121 8.54004C60.2711 8.98437 60.9085 9.64373 61.3232 10.5176C61.686 11.2692 61.9122 12.1738 62.0029 13.2314L62.0342 13.6943H69.2539C69.0595 11.6114 68.4941 9.74316 67.5576 8.08984L67.3662 7.7627C66.3942 6.13804 65.0445 4.83799 63.3174 3.86426L62.9668 3.6748C61.1894 2.74443 59.0345 2.24951 56.502 2.19141L55.9912 2.18555C53.9473 2.18555 52.0954 2.54867 50.4365 3.27441C48.7777 4.00016 47.3558 5.04462 46.1709 6.40723L45.9521 6.66602C44.8735 7.97638 44.0355 9.53391 43.4385 11.3389L43.3223 11.7031C42.7626 13.5368 42.4834 15.5854 42.4834 17.8486V19.8262L42.4971 20.7197C42.5635 22.7787 42.8622 24.6511 43.3936 26.3359L41.9629 26.7871C41.3018 24.6906 40.9834 22.3641 40.9834 19.8262V17.8486C40.9834 15.3039 41.319 12.9713 42.0146 10.8682C42.7063 8.77722 43.7086 6.95287 45.0391 5.42285C46.3701 3.89217 47.9733 2.71495 49.835 1.90039C51.7064 1.08164 53.767 0.685547 55.9912 0.685547C58.7374 0.685592 61.1756 1.14883 63.252 2.13965L63.6621 2.3457C65.7849 3.45684 67.4614 5.00358 68.6484 6.98438C69.7554 8.80863 70.4333 10.856 70.7002 13.1025L70.748 13.5547L70.9004 15.1943H60.6025L60.5352 13.7646C60.4891 12.7856 60.3249 12.0139 60.0811 11.415L59.9678 11.1602C59.6937 10.5827 59.2903 10.1657 58.7227 9.87207C58.1532 9.57762 57.2771 9.37309 55.9912 9.37305C55.1435 9.37305 54.4667 9.52907 53.9229 9.79492C53.4299 10.0428 52.985 10.4391 52.5977 11.0439C52.2153 11.6642 51.8904 12.5185 51.6631 13.6553L51.6621 13.6582C51.4357 14.777 51.3145 16.154 51.3145 17.8047V19.8262L51.3193 20.4297C51.3393 21.6132 51.4189 22.6503 51.5527 23.5469L51.624 23.9834C51.8224 25.0945 52.1258 25.9332 52.4912 26.5479C52.8167 27.0739 53.1987 27.4517 53.6367 27.7148L53.8281 27.8203C54.3518 28.0871 55.0601 28.2568 56.0127 28.2568V29.7568C55.0279 29.7568 54.1733 29.604 53.4492 29.2979L53.1475 29.1572C52.3625 28.7573 51.7174 28.1496 51.2139 27.335C50.7252 26.5204 50.3696 25.491 50.1475 24.2471C49.9531 23.1585 49.8436 21.8942 49.8193 20.4541L49.8145 19.8262Z" fill="white"/>
<path d="M0 9.06641H13.3848L27.8994 24.4004H38.7637V30.6309H25.3789L10.8643 15.2969H0V9.06641ZM26.0254 10.5664V13.7969H37.2637V10.5664H26.0254ZM1.5 13.7969H11.5107L26.0254 29.1309H37.2637V25.9004H27.2539L12.7393 10.5664H1.5V13.7969ZM38.7637 15.2969H24.5254V9.06641H38.7637V15.2969Z" fill="white"/>
</svg>
